<svg width="28" height="28" viewBox="0 0 28 28" fill="none" xmlns="http://www.w3.org/2000/svg">
<g clip-path="url(#clip0)">
<path d="M26.5921 11.0953L23.9111 10.558C23.7764 10.1704 23.6171 9.79414 23.4412 9.43014L24.9602 7.15164C25.4231 6.45776 25.3312 5.53289 24.7415 4.94401L23.058 3.26051C22.7194 2.92189 22.2723 2.74776 21.819 2.74776C21.4839 2.74776 21.1453 2.84401 20.8504 3.04176L18.5719 4.55989C18.2061 4.38314 17.8299 4.22564 17.4422 4.09089L16.905 1.40901C16.7423 0.590014 16.023 0.00201416 15.1891 0.00201416H12.8091C11.9753 0.00201416 11.2569 0.590889 11.0933 1.40901L10.556 4.09089C10.1684 4.22564 9.79212 4.38401 9.42812 4.55989L7.1505 3.04176C6.85388 2.84401 6.51613 2.74776 6.18013 2.74776C5.72775 2.74776 5.28062 2.92189 4.942 3.26051L3.25937 4.94401C2.66962 5.53376 2.57775 6.45776 3.04062 7.15164L4.55875 9.43014C4.382 9.79501 4.2245 10.1713 4.08975 10.5589L1.407 11.0953C0.588875 11.2589 0 11.9773 0 12.8111V15.1911C0 16.025 0.588875 16.7443 1.407 16.907L4.08887 17.4451C4.22362 17.8328 4.382 18.209 4.55788 18.573L3.04062 20.8515C2.57775 21.5454 2.66962 22.4703 3.25937 23.0591L4.94287 24.7426C5.2815 25.0813 5.72863 25.2554 6.181 25.2554C6.517 25.2554 6.85563 25.1583 7.1505 24.9614L9.429 23.4424C9.79387 23.62 10.1701 23.7775 10.5577 23.9123L11.0941 26.5933C11.2577 27.4123 11.9761 28.0011 12.81 28.0011H15.19C16.0239 28.0011 16.7431 27.4114 16.9059 26.5933L17.444 23.9123C17.8316 23.7775 18.2079 23.6183 18.5719 23.4424L20.8504 24.9614C21.1461 25.1583 21.4848 25.2554 21.819 25.2554C22.2723 25.2554 22.7194 25.0813 23.058 24.7426L24.7415 23.0591C25.3312 22.4694 25.4231 21.5454 24.9602 20.8515L23.4412 18.573C23.6189 18.2073 23.7764 17.831 23.9111 17.4434L26.5921 16.907C27.4102 16.7451 28 16.025 28 15.1911V12.8111C28 11.9773 27.4102 11.2589 26.5921 11.0953ZM23.5672 15.7284C22.9591 15.85 22.4613 16.284 22.2582 16.8703C22.1454 17.1931 22.0141 17.5064 21.8671 17.81C21.595 18.3691 21.6414 19.0289 21.9852 19.5443L23.5042 21.8228L21.8207 23.5063L19.5422 21.9873C19.25 21.7921 18.9114 21.6933 18.5719 21.6933C18.312 21.6933 18.0504 21.751 17.8097 21.8674C17.5053 22.0144 17.1929 22.1474 16.8682 22.2603C16.2838 22.4633 15.8498 22.9611 15.7281 23.5693L15.19 26.252H12.81L12.2736 23.5693C12.152 22.9611 11.718 22.4633 11.1326 22.2603C10.8097 22.1474 10.4956 22.0161 10.192 21.8691C9.9505 21.751 9.68975 21.6933 9.429 21.6933C9.08862 21.6933 8.75087 21.7921 8.45862 21.9873L6.18013 23.5063L4.49662 21.8228L6.01475 19.5443C6.35862 19.028 6.40325 18.3683 6.13462 17.8118C5.98763 17.5073 5.8555 17.1949 5.74263 16.8703C5.53963 16.2858 5.04087 15.8518 4.43362 15.7301L1.75175 15.192L1.75 12.8111L4.43275 12.2748C5.04 12.1531 5.53875 11.7191 5.74175 11.1338C5.85462 10.8109 5.985 10.4968 6.13287 10.1931C6.40412 9.63489 6.35862 8.97514 6.01388 8.45976L4.49662 6.18126L6.17925 4.49776L8.45775 6.01589C8.75 6.21101 9.08862 6.30989 9.42812 6.30989C9.688 6.30989 9.94875 6.25214 10.1903 6.13576C10.4939 5.98876 10.8071 5.85664 11.1309 5.74376C11.7162 5.54076 12.1502 5.04201 12.2719 4.43476L12.8091 1.75289L15.1891 1.75201L15.7255 4.43476C15.8471 5.04201 16.2811 5.54076 16.8674 5.74376C17.1903 5.85664 17.5035 5.98701 17.8071 6.13489C18.0495 6.25214 18.3094 6.30989 18.571 6.30989C18.9114 6.30989 19.2491 6.21101 19.5414 6.01589L21.8199 4.49776L23.5034 6.18126L21.9844 8.45976C21.6405 8.97601 21.5968 9.63489 21.8645 10.1923C22.0115 10.4959 22.1445 10.8091 22.2574 11.1329C22.4604 11.7183 22.9583 12.1523 23.5664 12.2739L26.2474 12.8111L26.25 15.1911L23.5672 15.7284Z" fill="white"/>
<path d="M14 7.87589C10.6181 7.87589 7.875 10.619 7.875 14.0009C7.875 17.3836 10.6181 20.1259 14 20.1259C17.3819 20.1259 20.125 17.3828 20.125 14.0009C20.125 10.619 17.3819 7.87589 14 7.87589ZM14 19.3611C11.0408 19.3611 8.64062 16.9601 8.64062 14.0018C8.64062 11.0425 11.0408 8.64238 14 8.64238C16.9584 8.64238 19.3594 11.0425 19.3594 14.0018C19.3594 16.9601 16.9584 19.3611 14 19.3611Z" fill="white"/>
<path d="M14 10.5009C12.0662 10.5009 10.5 12.0671 10.5 14.0009C10.5 15.9338 12.0662 17.5009 14 17.5009C15.9329 17.5009 17.5 15.9338 17.5 14.0009C17.5 12.068 15.9329 10.5009 14 10.5009ZM14 16.6268C12.551 16.6268 11.375 15.4508 11.375 14.0018C11.375 12.5528 12.551 11.3768 14 11.3768C15.449 11.3768 16.625 12.5528 16.625 14.0018C16.625 15.4508 15.449 16.6268 14 16.6268Z" fill="white"/>
</g>
<defs>
<clipPath id="clip0">
<rect width="28" height="28" fill="white"/>
</clipPath>
</defs>
</svg>
